<svg width="26" height="25" viewBox="0 0 26 25" fill="none" xmlns="http://www.w3.org/2000/svg">
<g clip-path="url(#clip0_1_394)">
<path d="M25.4959 20.7523C25.5907 20.4962 14.709 12.2797 14.709 12.2797C13.3467 11.2744 12.6302 11.2586 11.283 12.2797C11.283 12.2797 0.417212 20.4896 0.508667 20.7422L0.50647 20.744C0.507593 20.7462 0.509399 20.7477 0.510913 20.7497C0.603064 21.0009 0.737106 21.2346 0.907349 21.441C0.979272 21.5282 1.06594 21.6012 1.14929 21.6772L1.14524 21.6803C1.15188 21.6862 1.16072 21.6889 1.16736 21.6948C1.52063 22.01 1.96614 22.2141 2.46106 22.2723C2.46882 22.2733 2.47507 22.2773 2.48284 22.2782H2.51272C2.58796 22.2854 2.6595 22.3035 2.73655 22.3035H23.2796C24.2911 22.3035 25.1482 21.6674 25.4886 20.7756C25.4927 20.769 25.4989 20.7642 25.5026 20.7573L25.4959 20.7523Z" fill="#96A9B2"/>
<path d="M13.011 11.3368L0.563843 20.6722V7.44712C0.563843 6.15806 1.60862 5.11328 2.89768 5.11328H23.1242C24.4133 5.11328 25.4581 6.15806 25.4581 7.44712V20.6722L13.011 11.3368Z" fill="#B9C5C6"/>
<path d="M0.709106 6.6356L11.3363 14.9827C12.6776 15.9725 13.3831 15.9881 14.7095 14.9827L25.32 6.64883C25.1359 6.31514 24.8603 6.05151 24.5451 5.84131L24.6911 5.72695C24.3349 5.40269 23.8796 5.19248 23.3741 5.13818L2.6488 5.13892C2.1448 5.19248 1.68875 5.40342 1.33328 5.72695L1.47815 5.83989C1.16663 6.04717 0.893579 6.30625 0.709106 6.6356Z" fill="#EDECE6"/>
<path d="M0.70564 6.65303C0.612329 6.90522 11.3263 14.9951 11.3263 14.9951C12.6677 15.9849 13.3731 16.0005 14.6995 14.9951C14.6995 14.9951 25.3979 6.91177 25.3078 6.66304L25.31 6.66123C25.309 6.65903 25.3072 6.65762 25.3057 6.65562C25.215 6.4083 25.083 6.17817 24.9154 5.975C24.8446 5.88911 24.7592 5.81724 24.6772 5.74243L24.6812 5.73936C24.6746 5.73355 24.6659 5.73081 24.6594 5.725C24.3115 5.41475 23.8729 5.21377 23.3857 5.1564C23.3781 5.15547 23.3718 5.15151 23.3642 5.15059H23.3348C23.2608 5.14351 23.1903 5.12573 23.1144 5.12573H2.88787C1.89187 5.12573 1.04802 5.7521 0.712915 6.63008C0.708911 6.63662 0.702759 6.64136 0.699097 6.64805L0.70564 6.65303Z" fill="#DCE2E2"/>
<path d="M14.7331 7.55098H12.8468C12.767 7.55098 12.6906 7.58264 12.6342 7.639C12.5779 7.69536 12.5462 7.77181 12.5462 7.85151V8.91216C12.5462 8.99187 12.5779 9.06831 12.6342 9.12467C12.6906 9.18103 12.767 9.2127 12.8468 9.2127H14.3807C14.4604 9.2127 14.5368 9.24436 14.5932 9.30072C14.6496 9.35708 14.6812 9.43353 14.6812 9.51323V10.0804C14.6812 10.1601 14.6496 10.2366 14.5932 10.2929C14.5368 10.3493 14.4604 10.381 14.3807 10.381H12.8468C12.767 10.381 12.6906 10.4126 12.6342 10.469C12.5779 10.5253 12.5462 10.6018 12.5462 10.6815V11.8328C12.5462 11.9125 12.5779 11.9889 12.6342 12.0453C12.6906 12.1016 12.767 12.1333 12.8468 12.1333H14.8641C14.9438 12.1333 15.0203 12.165 15.0766 12.2213C15.133 12.2777 15.1647 12.3541 15.1647 12.4338V13.0413C15.1647 13.121 15.133 13.1975 15.0766 13.2538C15.0203 13.3102 14.9438 13.3418 14.8641 13.3418H11.1649C11.0852 13.3418 11.0088 13.3102 10.9524 13.2538C10.896 13.1975 10.8644 13.121 10.8644 13.0413V6.66309C10.8644 6.58338 10.896 6.50694 10.9524 6.45057C11.0088 6.39421 11.0852 6.36255 11.1649 6.36255H14.8177C15.0008 6.36255 15.1413 6.52476 15.1152 6.70596L15.0306 7.29326C15.0203 7.36481 14.9845 7.43025 14.9299 7.47759C14.8752 7.52492 14.8054 7.55098 14.7331 7.55098Z" fill="#597B91"/>
</g>
<defs>
<clipPath id="clip0_1_394">
<rect width="25" height="25" fill="white" transform="translate(0.504517)"/>
</clipPath>
</defs>
</svg>
