<svg width="25" height="26" viewBox="0 0 25 26" fill="none" xmlns="http://www.w3.org/2000/svg">
<g clip-path="url(#clip0_191_394)">
<path d="M0.533447 12.3902C0.532861 14.4907 1.08599 16.5416 2.13774 18.3494L0.432861 24.5259L6.80317 22.8686C8.56513 23.8203 10.5393 24.319 12.5454 24.3192H12.5506C19.1732 24.3192 24.5641 18.972 24.5669 12.3996C24.5682 9.2148 23.3194 6.22003 21.0504 3.96693C18.7819 1.71402 15.7648 0.472645 12.5501 0.471191C5.92681 0.471191 0.536279 5.81809 0.533545 12.3902" fill="url(#paint0_linear_191_394)"/>
<path d="M0.104492 12.3863C0.103809 14.5624 0.676758 16.6867 1.76602 18.5592L0 24.9571L6.59873 23.2404C8.41689 24.224 10.464 24.7426 12.547 24.7434H12.5523C19.4125 24.7434 24.9971 19.2038 25 12.3962C25.0012 9.09697 23.7074 5.99454 21.3574 3.66073C19.0071 1.3272 15.8821 0.0411515 12.5523 0.0397949C5.69101 0.0397949 0.107227 5.57856 0.104492 12.3863ZM4.03428 18.2367L3.78789 17.8486C2.75215 16.2145 2.20547 14.3261 2.20625 12.3871C2.2084 6.72865 6.84941 2.12507 12.5563 2.12507C15.3199 2.12623 17.9172 3.19522 19.8707 5.13476C21.8241 7.07449 22.899 9.65297 22.8983 12.3954C22.8958 18.0538 18.2547 22.658 12.5523 22.658H12.5482C10.6915 22.657 8.87051 22.1623 7.28242 21.2273L6.90449 21.0049L2.98867 22.0236L4.03428 18.2367Z" fill="url(#paint1_linear_191_394)"/>
<path d="M9.44116 7.22474C9.20815 6.71089 8.96294 6.70052 8.74136 6.69151C8.55991 6.68375 8.35249 6.68434 8.14526 6.68434C7.93784 6.68434 7.60083 6.76176 7.31597 7.07038C7.03081 7.3793 6.22729 8.12581 6.22729 9.64412C6.22729 11.1624 7.34185 12.6299 7.49722 12.836C7.65278 13.0417 9.64888 16.2572 12.8102 17.4942C15.4375 18.5222 15.9722 18.3178 16.5424 18.2662C17.1127 18.2149 18.3827 17.5199 18.6417 16.7993C18.901 16.0787 18.901 15.4611 18.8233 15.332C18.7456 15.2034 18.5381 15.1262 18.2271 14.9719C17.9161 14.8177 16.3869 14.071 16.1018 13.968C15.8166 13.8651 15.6093 13.8137 15.4019 14.1227C15.1945 14.4312 14.5989 15.1262 14.4173 15.332C14.236 15.5383 14.0544 15.564 13.7435 15.4096C13.4323 15.2548 12.4306 14.9293 11.2422 13.878C10.3176 13.06 9.69341 12.0498 9.51196 11.7408C9.33052 11.4323 9.49253 11.2651 9.64849 11.1113C9.78823 10.973 9.95962 10.7509 10.1153 10.5708C10.2704 10.3905 10.3221 10.262 10.4258 10.0561C10.5296 9.85013 10.4777 9.6699 10.4 9.51554C10.3221 9.36118 9.71772 7.83492 9.44116 7.22474Z" fill="white"/>
</g>
<defs>
<linearGradient id="paint0_linear_191_394" x1="1207.14" y1="2405.95" x2="1207.14" y2="0.471191" gradientUnits="userSpaceOnUse">
<stop stop-color="#1FAF38"/>
<stop offset="1" stop-color="#60D669"/>
</linearGradient>
<linearGradient id="paint1_linear_191_394" x1="1250" y1="2491.77" x2="1250" y2="0.0397949" gradientUnits="userSpaceOnUse">
<stop stop-color="#F9F9F9"/>
<stop offset="1" stop-color="white"/>
</linearGradient>
<clipPath id="clip0_191_394">
<rect width="25" height="25" fill="white" transform="translate(0 0.0397949)"/>
</clipPath>
</defs>
</svg>
