<svg width="13" height="13" viewBox="0 0 19 13" fill="none" xmlns="http://www.w3.org/2000/svg">
<g filter="url(#filter0_d_24_103)">
<path opacity="0.5" fill-rule="evenodd" clip-rule="evenodd" d="M14.9167 6.99997C14.9167 9.9916 12.4916 12.4166 9.49998 12.4166C8.8874 12.4173 8.27914 12.314 7.70111 12.1111C7.45781 11.5208 7.33285 10.8885 7.33332 10.25C7.33183 9.09414 7.74243 7.97564 8.4914 7.09531C8.81486 7.56701 9.24837 7.95281 9.75443 8.21933C10.2605 8.48586 10.8239 8.62509 11.3958 8.62497C12.0025 8.62506 12.599 8.46837 13.1273 8.17009C13.6556 7.8718 14.0979 7.44205 14.4113 6.92251C14.5413 6.70801 14.9167 6.74918 14.9167 6.99997Z" fill="black"/>
<path d="M4.08331 6.99992C4.08331 9.36104 5.59402 11.369 7.7011 12.1105C7.45788 11.5204 7.33292 10.8882 7.33331 10.2499C7.33331 9.04688 7.76935 7.94567 8.4914 7.09525C8.08873 6.50941 7.87375 5.81496 7.87498 5.10409C7.87489 4.49737 8.03158 3.90092 8.32987 3.37259C8.62815 2.84426 9.0579 2.40197 9.57744 2.08863C9.79248 1.95863 9.75077 1.58325 9.49998 1.58325C6.50835 1.58325 4.08331 4.00829 4.08331 6.99992Z" fill="black"/>
</g>
<defs>
<filter id="filter0_d_24_103" x="-1" y="0.5" width="21" height="21" filterUnits="userSpaceOnUse" color-interpolation-filters="sRGB">
<feFlood flood-opacity="0" result="BackgroundImageFix"/>
<feColorMatrix in="SourceAlpha" type="matrix" values="0 0 0 0 0 0 0 0 0 0 0 0 0 0 0 0 0 0 127 0" result="hardAlpha"/>
<feOffset dy="4"/>
<feGaussianBlur stdDeviation="2"/>
<feColorMatrix type="matrix" values="0 0 0 0 0 0 0 0 0 0 0 0 0 0 0 0 0 0 0.25 0"/>
<feBlend mode="normal" in2="BackgroundImageFix" result="effect1_dropShadow_24_103"/>
<feBlend mode="normal" in="SourceGraphic" in2="effect1_dropShadow_24_103" result="shape"/>
</filter>
</defs>
</svg>
