<svg width="13" height="14" viewBox="0 0 13 14" fill="none" xmlns="http://www.w3.org/2000/svg">
<path d="M3.04208 9.4125L2.23792 11.2822L4.1076 10.478C3.68542 10.1765 3.32354 9.81458 3.04208 9.4125ZM9.95792 4.5875L10.7621 2.71781L8.9125 3.52198C9.31458 3.82354 9.67646 4.18542 9.95792 4.5875ZM2.35854 6.25615L0.46875 7L2.35854 7.74385C2.29823 7.5026 2.27813 7.26135 2.27813 7C2.27813 6.73865 2.29823 6.4974 2.35854 6.25615ZM10.6415 7.74385L12.5312 7L10.6415 6.25615C10.6817 6.4974 10.7219 6.75875 10.7219 7C10.7219 7.26135 10.7018 7.5026 10.6415 7.74385ZM4.0875 3.54208L2.21781 2.73792L3.02198 4.6076C3.32354 4.18542 3.68542 3.82354 4.0875 3.54208ZM8.9125 10.4579L10.7822 11.2621L9.97802 9.3924C9.67646 9.81458 9.31458 10.1765 8.9125 10.4579ZM7.24385 2.85854L6.5 0.96875L5.75615 2.85854C5.9974 2.81833 6.25875 2.77813 6.5 2.77813C6.74125 2.77813 7.0026 2.79823 7.24385 2.85854ZM5.75615 11.1415L6.5 13.0312L7.24385 11.1415C7.0026 11.2018 6.76135 11.2219 6.5 11.2219C6.23865 11.2219 5.9974 11.2018 5.75615 11.1415Z" fill="#FFCE31"/>
<path d="M6.49997 10.8198C8.60958 10.8198 10.3198 9.10958 10.3198 6.99997C10.3198 4.89035 8.60958 3.18018 6.49997 3.18018C4.39035 3.18018 2.68018 4.89035 2.68018 6.99997C2.68018 9.10958 4.39035 10.8198 6.49997 10.8198Z" fill="#FFCE31"/>
</svg>
